<svg width="535" height="691" viewBox="0 0 535 691" fill="none" xmlns="http://www.w3.org/2000/svg">
<path d="M158.296 681.187C170.143 685.015 179.803 688.25 185.863 690.3C187.002 689.89 187.366 689.435 187.685 688.888C188.733 687.065 188.642 685.151 187.685 682.964C183.357 672.803 160.392 656.764 142.94 618.9C138.976 610.242 135.285 597.803 125.443 578.437C118.79 565.36 114.507 559.027 111.865 559.756C109.769 560.302 109.176 564.996 108.994 569.37C108.037 594.932 110.771 603.498 108.083 619.401C106.807 626.873 105.303 635.212 98.7417 642.457C92.3626 649.474 86.8947 649.246 86.6213 652.481C86.1201 659.453 111.363 666.014 158.205 681.187H158.296Z" fill="white"/>
<path d="M20.4603 245.081C21.0983 245.582 24.1511 247.724 31.6694 245.172C55.7735 237.016 137.563 176.596 153.329 187.441C157.111 190.038 157.065 196.691 156.564 199.789C152.463 226.809 80.4244 222.344 71.2657 254.695C69.3976 261.257 69.8076 270.461 74.911 275.473C81.7914 282.171 94.9142 279.118 102.205 277.114C140.115 266.634 177.296 241.39 195.933 230.819C239.767 205.986 283.145 204.756 311.714 203.981C335.727 203.298 373.911 205.303 419.112 221.706C421.755 222.891 472.879 245.491 484.316 238.93C487.87 236.879 489.465 233.918 489.465 233.918C489.465 233.918 492.381 228.45 488.918 219.519C484.772 208.857 411.639 143.106 256.58 138.185C171.327 135.496 123.21 153.13 100.2 163.291C38.8688 190.357 17.8175 225.306 17.4074 234.966C17.3163 236.879 17.0885 242.393 20.4603 244.99V245.081Z" fill="white"/>
<path d="M382.933 305C389.221 303.633 396.511 302.585 404.622 302.357C413.325 302.129 421.162 302.949 427.952 304.179C435.834 305.592 443.307 308.69 450.187 312.791C466.545 322.588 467.229 303.086 468.414 286.363C468.322 239.704 398.79 255.698 368.944 233.371C344.157 220.02 228.694 223.757 233.159 256.791C228.557 282.764 179.529 279.802 193.199 315.799C198.849 352.934 244.004 286.363 304.333 302.311C350.992 307.004 336.684 380.775 352.723 414.63C356.778 442.06 364.206 437.276 387.991 437.321C405.032 436.866 406.991 439.645 400.703 453.725C470.692 513.188 458.526 427.753 449.55 373.029C454.653 330.061 385.712 324.866 394.051 350.474C407.538 399.912 380.791 353.755 372.544 321.768C370.585 314.249 375.369 306.686 382.979 305H382.933Z" fill="white"/>
<path d="M33.1276 177.371C44.6101 168.668 59.2365 158.917 77.0982 150.077C86.6213 145.384 112.32 133.355 152.053 125.7C253.937 106.152 349.488 134.448 367.486 140.007C391.864 147.526 424.443 159.692 460.713 179.923C464.769 182.155 468.596 176.687 465.087 173.635C409.817 125.882 359.604 105.697 321.511 96.4013C276.219 85.3289 232.021 85.7846 232.157 83.0506C232.248 80.3623 282.234 73.892 332.219 85.0555C390.679 98.1328 434.285 132.033 464.039 163.109C467.138 166.344 472.378 162.517 470.145 158.598C458.754 138.185 440.664 113.306 412.642 92.027C389.586 74.5299 368.762 65.6902 357.052 61.6805C202.995 9.28028 93.1372 94.5331 93.1372 94.5331C77.1893 106.927 50.0779 131.213 27.523 172.495C25.5637 176.095 29.8924 179.877 33.1731 177.371H33.1276Z" fill="white"/>
<path d="M217.257 384.83C222.041 411.44 235.438 429.712 263.141 427.069C295.994 438.552 262.686 487.945 294.445 476.918C311.441 471.04 322.741 454.864 323.242 436.911C324.062 407.203 328.391 379.362 314.266 348.97C306.292 325.367 206.23 337.852 237.215 373.302C258.175 391.802 234.663 384.329 217.257 384.83Z" fill="white"/>
<path d="M7.92972 372.846C2.6897 391.073 23.4675 400.368 23.0574 415.359C23.0574 416.544 23.0574 417.728 23.3764 418.913C43.4707 492.547 94.4584 476.143 48.3462 393.624C47.6172 392.348 46.5691 391.209 45.3844 390.344C6.92726 361.774 39.6432 325.413 44.2909 290.601C45.2022 283.675 38.5497 278.116 31.806 279.984C-4.32738 290.145 -5.37539 334.799 7.51961 366.741C8.29422 368.7 8.43093 370.842 7.88414 372.846H7.92972Z" fill="white"/>
<path d="M98.2861 383.463C90.5855 362.549 82.9761 341.816 75.2756 320.765C72.815 314.022 64.3854 311.789 58.872 316.391C36.7272 334.891 57.5506 374.76 82.0192 394.9C90.1754 401.644 101.977 393.351 98.3316 383.418L98.2861 383.463Z" fill="white"/>
<path d="M205.319 616.393C212.974 620.996 217.485 614.115 227.19 616.758C247.695 622.363 245.644 658.222 264.326 662.733C274.487 665.194 279.044 655.534 293.397 658.086C304.925 660.136 311.897 668.201 315.223 671.3C315.542 671.619 315.906 671.938 316.271 672.211C318.822 674.398 322.103 676.403 326.341 677.952C338.416 682.418 358.282 683.557 391.773 676.175C405.579 673.122 417.927 665.422 426.767 654.349C431.688 648.198 436.882 640.634 441.53 631.703C443.581 627.739 445.54 623.456 447.317 618.9C449.231 613.978 450.962 608.693 452.42 603.043C463.629 558.89 448.866 523.076 444.036 512.55C439.616 504.394 430.139 489.904 412.733 480.654C381.976 464.251 341.742 472.225 319.233 493.094C294.08 516.423 294.491 552.83 284.603 552.192C274.533 551.508 269.065 513.598 260.909 514.509C256.352 515.01 250.52 521.298 246.966 528.862C245.371 532.234 240.359 531.368 239.994 527.678C245.052 504.576 227.19 460.15 216.255 503.255C215.48 507.173 209.967 507.219 209.055 503.346C204.818 483.98 198.348 465.025 188.232 463.886C179.028 462.838 174.471 477.465 165.222 477.1C145.309 476.371 138.338 407.567 126.491 408.069C117.879 408.433 112.821 445.295 111.545 464.752C109.768 492.137 108.401 513.142 121.388 530.594C132.187 545.129 141.117 541.347 152.099 559.027C160.528 572.514 161.576 584.771 172.011 588.371C178.982 590.74 181.625 586.411 187.731 589.236C198.53 594.249 194.793 610.014 205.319 616.348V616.393ZM332.082 515.193C335.864 511.866 354.136 496.693 380.655 498.379C399.747 499.609 412.915 508.859 417.882 512.823C425.127 518.565 433.192 534.786 426.767 545.129C418.747 558.024 391.818 554.698 389.54 548.091C387.9 543.489 398.562 538.659 397.013 533.647C394.415 525.491 362.337 525.718 360.105 533.282C358.874 537.429 367.532 540.709 366.712 545.904C365.39 554.242 339.372 564.677 327.799 553.194C319.779 545.175 319.871 527.632 332.082 515.193Z" fill="white"/>
<path d="M487.129 46.9716L476.189 22.2727H480.619L488.27 40.3942L495.921 22.2727H500.351L489.411 46.9716H487.129ZM475.384 46.9716V22.2727H479.679V46.9716H475.384ZM496.861 46.9716V22.2727H501.156V46.9716H496.861ZM459.276 46.9716V24.4205H463.571V46.9716H459.276ZM451.759 26.0312V22.2727H471.088V26.0312H451.759Z" fill="white"/>
</svg>
